<svg xmlns="http://www.w3.org/2000/svg" version="1.1" xmlns:xlink="http://www.w3.org/1999/xlink" xmlns:svgjs="http://svgjs.dev/svgjs" width="1500" height="1500" viewBox="0 0 1500 1500"><g transform="matrix(1,0,0,1,-0.323615160350073,-0.3236151603499593)"><svg viewBox="0 0 343 343" data-background-color="#000000" preserveAspectRatio="xMidYMid meet" height="1500" width="1500" xmlns="http://www.w3.org/2000/svg" xmlns:xlink="http://www.w3.org/1999/xlink"><g id="tight-bounds" transform="matrix(1,0,0,1,0.0740000000000407,0.07400000000001228)"><svg viewBox="0 0 342.85155851775386 342.85155851775386" height="342.85155851775386" width="342.85155851775386"><rect width="342.852" height="342.852" fill="url(#295de301-6c34-45f1-a9b8-fa7bb2c8c8fa)" mask="url(#eb297d53-1aef-48d1-9a3b-533d4e7a0ac1)" data-fill-palette-color="tertiary"></rect><g><svg></svg></g><g><svg viewBox="0 0 342.85155851775386 342.85155851775386" height="342.85155851775386" width="342.85155851775386"><g><path d="M0 171.426c0-94.676 76.75-171.426 171.426-171.426 94.676 0 171.426 76.75 171.426 171.426 0 94.676-76.75 171.426-171.426 171.426-94.676 0-171.426-76.75-171.426-171.426zM171.426 333.146c89.316 0 161.72-72.405 161.72-161.72 0-89.316-72.405-161.72-161.72-161.72-89.316 0-161.72 72.405-161.72 161.72 0 89.316 72.405 161.72 161.72 161.72z" data-fill-palette-color="tertiary" fill="url(#295de301-6c34-45f1-a9b8-fa7bb2c8c8fa)" stroke="transparent"></path><ellipse rx="164.56874808852186" ry="164.56874808852186" cx="171.42577925887693" cy="171.42577925887693" fill="url(#295de301-6c34-45f1-a9b8-fa7bb2c8c8fa)" stroke="transparent" stroke-width="0" fill-opacity="1" data-fill-palette-color="tertiary"></ellipse></g><g transform="matrix(1,0,0,1,64.84655864529837,97.71065284684673)"><svg viewBox="0 0 213.1584412271571 147.4302528240604" height="147.4302528240604" width="213.1584412271571"><g><svg viewBox="0 0 214.22423343329285 148.16740408818066" height="147.4302528240604" width="213.1584412271571"><g><svg viewBox="0 0 214.22423343329285 148.16740408818066" height="148.16740408818066" width="214.22423343329285"><g id="textblocktransform"><svg viewBox="0 0 214.22423343329285 148.16740408818066" height="148.16740408818066" width="214.22423343329285" id="textblock"><g><rect width="214.22423343329285" height="9.75415481160792" x="0" y="119.65243028817011" fill="#000000" opacity="1" stroke-width="0" stroke="transparent" fill-opacity="1" class="rect-qz-0" data-fill-palette-color="quaternary" rx="1%" id="qz-0" data-palette-color="#000000"></rect></g><g transform="matrix(1,0,0,1,0.532896103067884,0)"><svg viewBox="0 0 213.15844122715708 108.16193378234927" height="108.16193378234927" width="213.15844122715708"><g transform="matrix(1,0,0,1,0,0)"><svg width="213.15844122715708" viewBox="4.486666666666667 -35.91111111111112 71.1134218453583 36.086111111111116" height="108.16193378234927" data-palette-color="#000000"><path d="M38.4-2.35L38.4-2.35 38.4-2.35 38.4-2.35 38.4-2.35Q38.6-7.4 38.55-17.75L38.55-17.75Q38.45-28.05 38.65-33.3L38.65-33.3Q38.7-34.4 37.98-35.1 37.25-35.8 36.25-35.9 35.25-36 34.4-35.2L34.4-35.2Q34.2-35.05 34-34.85L34-34.85Q29.05-29.5 22.35-19.3L22.35-19.3Q20.2-22.1 17.05-25.85L17.05-25.85 9.6-34.7Q8.85-35.6 7.7-35.65L7.7-35.65Q7.25-35.8 6.75-35.75L6.75-35.75Q5.7-35.65 5.05-34.85 4.4-34.05 4.5-33L4.5-33Q5.1-27.3 5.1-17.95L5.1-17.95Q5.1-15.5 5.05-10.35L5.05-10.35Q4.95-5.2 4.95-2.55L4.95-2.55Q4.95-1.3 5.7-0.68 6.45-0.05 7.45-0.05 8.45-0.05 9.2-0.68 9.95-1.3 9.95-2.55L9.95-2.55Q9.95-5.2 10.05-10.35L10.05-10.35Q10.1-15.5 10.1-17.9L10.1-17.9Q10.1-22.75 9.95-26.5L9.95-26.5 13.2-22.6Q18.2-16.6 20.3-13.65L20.3-13.65Q20.6-13.25 21.05-12.95L21.05-12.95Q21.1-12.95 21.15-12.9L21.15-12.9Q22-12.35 23.03-12.55 24.05-12.75 24.6-13.65L24.6-13.65Q29.65-21.45 33.5-26.45L33.5-26.45Q33.5-24.95 33.55-14.5L33.55-14.5Q33.6-4.05 33.4-2.55L33.4-2.55Q33.35-1.3 34.08-0.65 34.8 0 35.77 0.03 36.75 0.05 37.55-0.53 38.35-1.1 38.4-2.35ZM50.05-0.15L50.05-0.15 50.05-0.15 50.05-0.15 50.05-0.15Q50.5-0.1 51.7-0.05 52.9 0 54.22 0.05 55.55 0.1 56.4 0.15L56.4 0.15Q57.65 0.2 59.85 0.15L59.85 0.15Q62 0.1 63.57-0.15 65.15-0.4 67-0.95L67-0.95Q68.85-1.5 70.35-2.3L70.35-2.3Q72.45-3.55 73.77-5.48 75.1-7.4 75.47-9.6 75.85-11.8 75.12-13.95 74.4-16.1 72.4-17.75L72.4-17.75Q71.7-18.35 70.75-18.8L70.75-18.8Q72.3-20.75 72.8-23.25 73.3-25.75 72.55-28.2L72.55-28.2Q71.75-30.65 69.75-32.35L69.75-32.35Q66.7-34.95 60.6-35.45L60.6-35.45Q57.4-35.75 51.8-35.4L51.8-35.4Q51.5-35.4 51.25-35.3L51.25-35.3Q50.55-35.65 49.75-35.5L49.75-35.5Q48.75-35.35 48.12-34.52 47.5-33.7 47.7-32.65L47.7-32.65Q47.9-31.2 48-29.38 48.1-27.55 48.15-26.45L48.15-26.45Q48.15-24.85 48.12-22.93 48.1-21 48.1-19.55L48.1-19.55Q48.1-16.9 48.15-11.8L48.15-11.8Q48.2-6.65 48.2-4.2L48.2-4.2Q47.7-3.55 47.65-2.75L47.65-2.75Q47.6-1.7 48.3-0.95 49-0.2 50.05-0.15ZM53.2-5L53.2-5 53.2-5 53.2-5 53.2-5Q53.2-7.05 53.15-10.8L53.15-10.8Q53.1-14.55 53.1-15.5L53.1-15.5 53.7-15.45Q54.1-15.3 54.5-15.25L54.5-15.25Q55-15.25 55.7-15.2L55.7-15.2Q58.65-15 60.15-14.95L60.15-14.95Q62.1-14.95 63.7-15.2L63.7-15.2Q68-14.95 69.2-13.95L69.2-13.95Q70.35-13 70.52-11.63 70.7-10.25 70.02-8.9 69.35-7.55 67.85-6.7L67.85-6.7Q66.05-5.65 63.52-5.2 61-4.75 58.55-4.85L58.55-4.85Q56.05-4.9 53.2-5ZM56.05-20.2L56.05-20.2 56.05-20.2 56.05-20.2 56.05-20.2Q55.2-20.3 53.25-20.55L53.25-20.55 53.1-20.55Q53.15-27.95 52.95-30.45L52.95-30.45Q57.45-30.7 60.15-30.5L60.15-30.5Q64.7-30.1 66.55-28.55L66.55-28.55Q67.65-27.6 67.9-26.13 68.15-24.65 67.6-23.2 67.05-21.75 65.75-21L65.75-21Q64.9-20.45 63.45-20.2L63.45-20.2 63.15-20.2Q61.5-20.3 58.4-20.25L58.4-20.25Q56.55-20.2 56.05-20.2Z" opacity="1" transform="matrix(1,0,0,1,0,0)" fill="#000000" class="wordmark-text-0" data-fill-palette-color="quaternary" id="text-0"></path></svg></g></svg></g><g transform="matrix(1,0,0,1,0,140.89708160559888)"><svg viewBox="0 0 143.77536860771744 7.270322482581788" height="7.270322482581788" width="143.77536860771744"><g transform="matrix(1,0,0,1,0,0)"><svg width="143.77536860771744" viewBox="5 -28.75 568.51 28.75" height="7.270322482581788" data-palette-color="#000000"><path d="M5-28.75L5-28.75 10.7-28.75 21-19.05 21-11.5 11.3-20.65 11.3 0 5 0 5-28.75ZM39.45-28.75L39.45-28.75 33.8-28.75 23.45-19.05 23.45-11.5 33.15-20.65 33.15 0 39.45 0 39.45-28.75ZM48.45-25.3L48.45-25.3 54.15-28.75 64.45-28.75 64.45-23.1 54.75-23.1 54.75-17.2 64.45-17.2 64.45-11.5 54.75-11.5 54.75 0 48.45 0 48.45-25.3ZM82.9-25.3L82.9-25.3 77-28.75 66.7-28.75 66.7-23.1 76.6-23.1 76.6-17.2 66.7-17.2 66.7-11.5 76.6-11.5 76.6 0 82.9 0 82.9-25.3ZM91.9-28.75L91.9-28.75 107.9-28.75 107.9-22.85 98.2-22.85 98.2-17.2 107.9-17.2 107.9-11.35 98.2-11.35 98.2 0 91.9 0 91.9-28.75ZM126.35 0L126.35 0 126.35-11.9 121.65-14.35 126.35-16.6 126.35-25.3 120.45-28.75 110.15-28.75 110.15-22.85 120.05-22.85 120.05-17.2 110.15-17.2 110.15-11.35 120.05-11.35 120.05 0 126.35 0ZM150.39-28.75L166.99-28.75 150.39-10.95 150.39-19.6 153.24-23.1 150.39-23.1 150.39-28.75ZM147.94 0L131.34 0 147.94-17.8 147.94-9.3 145.14-5.85 147.94-5.85 147.94 0ZM132.14-28.75L147.94-28.75 147.94-23.1 132.14-23.1 132.14-28.75ZM150.39-5.85L166.34-5.85 166.34 0 150.39 0 150.39-5.85ZM171.49-28.75L171.49-28.75 177.79-28.75 177.79 0 171.49 0 171.49-28.75ZM185.79-25.3L185.79-25.3 191.49-28.75 201.79-28.75 201.79-23.1 192.09-23.1 192.09-17.2 201.79-17.2 201.79-11.5 192.09-11.5 192.09 0 185.79 0 185.79-25.3ZM220.24-25.3L220.24-25.3 214.34-28.75 204.04-28.75 204.04-23.1 213.94-23.1 213.94-17.2 204.04-17.2 204.04-11.5 213.94-11.5 213.94 0 220.24 0 220.24-25.3ZM244.23 0L244.23-28.75 260.23-28.75 260.23-23.1 250.53-23.1 250.53-17.2 260.23-17.2 260.23-11.5 250.53-11.5 250.53-5.85 260.23-5.85 260.23 0 244.23 0ZM273.03 0L278.68-3.4 278.68-12.15 273.98-14.35 278.68-16.6 278.68-25.3 273.03-28.75 262.68-28.75 262.68-23.1 272.38-23.1 272.38-17.2 262.68-17.2 262.68-11.5 272.38-11.5 272.38-5.85 262.68-5.85 262.68 0 273.03 0ZM286.68-25.3L286.68-25.3 292.53-28.75 302.88-28.75 302.88-23.1 292.98-23.1 292.98-5.85 302.68-5.85 302.68 0 292.53 0 286.68-3.4 286.68-25.3ZM321.13-25.3L321.13-25.3 315.48-28.75 305.13-28.75 305.13-23.1 314.83-23.1 314.83-5.85 305.13-5.85 305.13 0 315.48 0 321.13-3.4 321.13-25.3ZM330.13 0L330.13-28.75 335.83-28.75 346.13-19.05 346.13-11.5 336.43-20.85 336.43 0 330.13 0ZM348.38-17.2L358.28-8.1 358.28-28.75 364.58-28.75 364.58 0 358.68 0 348.38-9.9 348.38-17.2ZM373.08-14.75L373.08-25.3 378.78-28.75 389.08-28.75 389.08-22.85 379.18-22.85 379.18-17.2 389.08-17.2 389.08-11.35 378.78-11.35 373.08-14.75ZM407.53-3.4L407.53-13.75 401.63-17.2 391.33-17.2 391.33-11.35 401.23-11.35 401.23-5.65 391.53-5.65 391.53 0 401.63 0 407.53-3.4ZM373.08-9.1L379.38-9.1 379.38-5.65 389.08-5.65 389.08 0 378.93 0 373.08-3.4 373.08-9.1ZM401.23-19.45L407.53-19.45 407.53-25.3 401.63-28.75 391.33-28.75 391.33-22.85 401.23-22.85 401.23-19.45ZM416.02-28.75L416.02-28.75 432.02-28.75 432.02-22.85 422.32-22.85 422.32-17.2 432.02-17.2 432.02-11.5 422.32-11.5 422.32-5.65 431.82-5.65 431.82 0 416.02 0 416.02-28.75ZM434.47-5.65L434.47-5.65 434.47 0 450.47 0 450.47-5.65 434.47-5.65ZM450.47-22.85L450.47-22.85 450.47-28.75 434.27-28.75 434.27-22.85 450.47-22.85ZM442.37-11.5L442.37-11.5 442.37-17.2 434.27-17.2 434.27-11.5 442.37-11.5ZM455.97-3.4L455.97-25.3 461.82-28.75 472.17-28.75 472.17-22.85 462.47-22.85 462.47-5.65 471.97-5.65 471.97 0 461.82 0 455.97-3.4ZM484.12-19.45L490.62-19.45 490.62-25.3 484.77-28.75 474.42-28.75 474.42-22.85 484.12-22.85 484.12-19.45ZM490.62-3.4L490.62-17.2 474.42-17.2 474.42-11.5 484.12-11.5 484.12-5.65 474.62-5.65 474.62 0 484.77 0 490.62-3.4ZM499.62 0L499.62-28.75 505.32-28.75 515.62-19.05 515.62-11.5 505.92-20.85 505.92 0 499.62 0ZM517.87-17.2L527.77-8.1 527.77-28.75 534.07-28.75 534.07 0 528.17 0 517.87-9.9 517.87-17.2ZM539.06-25.3L539.06-25.3 544.76-28.75 555.06-28.75 555.06-23.1 545.36-23.1 545.36-17.2 555.06-17.2 555.06-11.5 545.36-11.5 545.36 0 539.06 0 539.06-25.3ZM573.51-25.3L573.51-25.3 567.61-28.75 557.31-28.75 557.31-23.1 567.21-23.1 567.21-17.2 557.31-17.2 557.31-11.5 567.21-11.5 567.21 0 573.51 0 573.51-25.3Z" opacity="1" transform="matrix(1,0,0,1,0,0)" fill="#000000" class="slogan-text-1" data-fill-palette-color="quaternary" id="text-1"></path></svg></g></svg></g></svg></g></svg></g></svg></g></svg></g></svg></g><defs></defs><mask id="eb297d53-1aef-48d1-9a3b-533d4e7a0ac1"><g id="SvgjsG1073"><svg viewBox="0 0 342.85155851775386 342.85155851775386" height="342.85155851775386" width="342.85155851775386"><g><svg></svg></g><g><svg viewBox="0 0 342.85155851775386 342.85155851775386" height="342.85155851775386" width="342.85155851775386"><g><path d="M0 171.426c0-94.676 76.75-171.426 171.426-171.426 94.676 0 171.426 76.75 171.426 171.426 0 94.676-76.75 171.426-171.426 171.426-94.676 0-171.426-76.75-171.426-171.426zM171.426 333.146c89.316 0 161.72-72.405 161.72-161.72 0-89.316-72.405-161.72-161.72-161.72-89.316 0-161.72 72.405-161.72 161.72 0 89.316 72.405 161.72 161.72 161.72z" fill="white" stroke="transparent"></path><ellipse rx="164.56874808852186" ry="164.56874808852186" cx="171.42577925887693" cy="171.42577925887693" fill="white" stroke="transparent" stroke-width="0" fill-opacity="1"></ellipse></g><g transform="matrix(1,0,0,1,64.84655864529837,97.71065284684673)"><svg viewBox="0 0 213.1584412271571 147.4302528240604" height="147.4302528240604" width="213.1584412271571"><g><svg viewBox="0 0 214.22423343329285 148.16740408818066" height="147.4302528240604" width="213.1584412271571"><g><svg viewBox="0 0 214.22423343329285 148.16740408818066" height="148.16740408818066" width="214.22423343329285"><g id="SvgjsG1072"><svg viewBox="0 0 214.22423343329285 148.16740408818066" height="148.16740408818066" width="214.22423343329285" id="SvgjsSvg1071"><g><rect width="214.22423343329285" height="9.75415481160792" x="0" y="119.65243028817011" fill="black" opacity="1" stroke-width="0" stroke="transparent" fill-opacity="1" class="rect-qz-0" rx="1%" id="SvgjsRect1070" data-palette-color="#000000"></rect></g><g transform="matrix(1,0,0,1,0.532896103067884,0)"><svg viewBox="0 0 213.15844122715708 108.16193378234927" height="108.16193378234927" width="213.15844122715708"><g transform="matrix(1,0,0,1,0,0)"><svg width="213.15844122715708" viewBox="4.486666666666667 -35.91111111111112 71.1134218453583 36.086111111111116" height="108.16193378234927" data-palette-color="#000000"><path d="M38.4-2.35L38.4-2.35 38.4-2.35 38.4-2.35 38.4-2.35Q38.6-7.4 38.55-17.75L38.55-17.75Q38.45-28.05 38.65-33.3L38.65-33.3Q38.7-34.4 37.98-35.1 37.25-35.8 36.25-35.9 35.25-36 34.4-35.2L34.4-35.2Q34.2-35.05 34-34.85L34-34.85Q29.05-29.5 22.35-19.3L22.35-19.3Q20.2-22.1 17.05-25.85L17.05-25.85 9.6-34.7Q8.85-35.6 7.7-35.65L7.7-35.65Q7.25-35.8 6.75-35.75L6.75-35.75Q5.7-35.65 5.05-34.85 4.4-34.05 4.5-33L4.5-33Q5.1-27.3 5.1-17.95L5.1-17.95Q5.1-15.5 5.05-10.35L5.05-10.35Q4.95-5.2 4.95-2.55L4.95-2.55Q4.95-1.3 5.7-0.68 6.45-0.05 7.45-0.05 8.45-0.05 9.2-0.68 9.95-1.3 9.95-2.55L9.95-2.55Q9.95-5.2 10.05-10.35L10.05-10.35Q10.1-15.5 10.1-17.9L10.1-17.9Q10.1-22.75 9.95-26.5L9.95-26.5 13.2-22.6Q18.2-16.6 20.3-13.65L20.3-13.65Q20.6-13.25 21.05-12.95L21.05-12.95Q21.1-12.95 21.15-12.9L21.15-12.9Q22-12.35 23.03-12.55 24.05-12.75 24.6-13.65L24.6-13.65Q29.65-21.45 33.5-26.45L33.5-26.45Q33.5-24.95 33.55-14.5L33.55-14.5Q33.6-4.05 33.4-2.55L33.4-2.55Q33.35-1.3 34.08-0.65 34.8 0 35.77 0.03 36.75 0.05 37.55-0.53 38.35-1.1 38.4-2.35ZM50.05-0.15L50.05-0.15 50.05-0.15 50.05-0.15 50.05-0.15Q50.5-0.1 51.7-0.05 52.9 0 54.22 0.05 55.55 0.1 56.4 0.15L56.4 0.15Q57.65 0.2 59.85 0.15L59.85 0.15Q62 0.1 63.57-0.15 65.15-0.4 67-0.95L67-0.95Q68.85-1.5 70.35-2.3L70.35-2.3Q72.45-3.55 73.77-5.48 75.1-7.4 75.47-9.6 75.85-11.8 75.12-13.95 74.4-16.1 72.4-17.75L72.4-17.75Q71.7-18.35 70.75-18.8L70.75-18.8Q72.3-20.75 72.8-23.25 73.3-25.75 72.55-28.2L72.55-28.2Q71.75-30.65 69.75-32.35L69.75-32.35Q66.7-34.95 60.6-35.45L60.6-35.45Q57.4-35.75 51.8-35.4L51.8-35.4Q51.5-35.4 51.25-35.3L51.25-35.3Q50.55-35.65 49.75-35.5L49.75-35.5Q48.75-35.35 48.12-34.52 47.5-33.7 47.7-32.65L47.7-32.65Q47.9-31.2 48-29.38 48.1-27.55 48.15-26.45L48.15-26.45Q48.15-24.85 48.12-22.93 48.1-21 48.1-19.55L48.1-19.55Q48.1-16.9 48.15-11.8L48.15-11.8Q48.2-6.65 48.2-4.2L48.2-4.2Q47.7-3.55 47.65-2.75L47.65-2.75Q47.6-1.7 48.3-0.95 49-0.2 50.05-0.15ZM53.2-5L53.2-5 53.2-5 53.2-5 53.2-5Q53.2-7.05 53.15-10.8L53.15-10.8Q53.1-14.55 53.1-15.5L53.1-15.5 53.7-15.45Q54.1-15.3 54.5-15.25L54.5-15.25Q55-15.25 55.7-15.2L55.7-15.2Q58.65-15 60.15-14.95L60.15-14.95Q62.1-14.95 63.7-15.2L63.7-15.2Q68-14.95 69.2-13.95L69.2-13.95Q70.35-13 70.52-11.63 70.7-10.25 70.02-8.9 69.35-7.55 67.85-6.7L67.85-6.7Q66.05-5.65 63.52-5.2 61-4.75 58.55-4.85L58.55-4.85Q56.05-4.9 53.2-5ZM56.05-20.2L56.05-20.2 56.05-20.2 56.05-20.2 56.05-20.2Q55.2-20.3 53.25-20.55L53.25-20.55 53.1-20.55Q53.15-27.95 52.95-30.45L52.95-30.45Q57.45-30.7 60.15-30.5L60.15-30.5Q64.7-30.1 66.55-28.55L66.55-28.55Q67.65-27.6 67.9-26.13 68.15-24.65 67.6-23.2 67.05-21.75 65.75-21L65.75-21Q64.9-20.45 63.45-20.2L63.45-20.2 63.15-20.2Q61.5-20.3 58.4-20.25L58.4-20.25Q56.55-20.2 56.05-20.2Z" opacity="1" transform="matrix(1,0,0,1,0,0)" fill="black" class="wordmark-text-0" id="SvgjsPath1069"></path></svg></g></svg></g><g transform="matrix(1,0,0,1,0,140.89708160559888)"><svg viewBox="0 0 143.77536860771744 7.270322482581788" height="7.270322482581788" width="143.77536860771744"><g transform="matrix(1,0,0,1,0,0)"><svg width="143.77536860771744" viewBox="5 -28.75 568.51 28.75" height="7.270322482581788" data-palette-color="#000000"><path d="M5-28.75L5-28.75 10.7-28.75 21-19.05 21-11.5 11.3-20.65 11.3 0 5 0 5-28.75ZM39.45-28.75L39.45-28.75 33.8-28.75 23.45-19.05 23.45-11.5 33.15-20.65 33.15 0 39.45 0 39.45-28.75ZM48.45-25.3L48.45-25.3 54.15-28.75 64.45-28.75 64.45-23.1 54.75-23.1 54.75-17.2 64.45-17.2 64.45-11.5 54.75-11.5 54.75 0 48.45 0 48.45-25.3ZM82.9-25.3L82.9-25.3 77-28.75 66.7-28.75 66.7-23.1 76.6-23.1 76.6-17.2 66.7-17.2 66.7-11.5 76.6-11.5 76.6 0 82.9 0 82.9-25.3ZM91.9-28.75L91.9-28.75 107.9-28.75 107.9-22.85 98.2-22.85 98.2-17.2 107.9-17.2 107.9-11.35 98.2-11.35 98.2 0 91.9 0 91.9-28.75ZM126.35 0L126.35 0 126.35-11.9 121.65-14.35 126.35-16.6 126.35-25.3 120.45-28.75 110.15-28.75 110.15-22.85 120.05-22.85 120.05-17.2 110.15-17.2 110.15-11.35 120.05-11.35 120.05 0 126.35 0ZM150.39-28.75L166.99-28.75 150.39-10.95 150.39-19.6 153.24-23.1 150.39-23.1 150.39-28.75ZM147.94 0L131.34 0 147.94-17.8 147.94-9.3 145.14-5.85 147.94-5.85 147.94 0ZM132.14-28.75L147.94-28.75 147.94-23.1 132.14-23.1 132.14-28.75ZM150.39-5.85L166.34-5.85 166.34 0 150.39 0 150.39-5.85ZM171.49-28.75L171.49-28.75 177.79-28.75 177.79 0 171.49 0 171.49-28.75ZM185.79-25.3L185.79-25.3 191.49-28.75 201.79-28.75 201.79-23.1 192.09-23.1 192.09-17.2 201.79-17.2 201.79-11.5 192.09-11.5 192.09 0 185.79 0 185.79-25.3ZM220.24-25.3L220.24-25.3 214.34-28.75 204.04-28.75 204.04-23.1 213.94-23.1 213.94-17.2 204.04-17.2 204.04-11.5 213.94-11.5 213.94 0 220.24 0 220.24-25.3ZM244.23 0L244.23-28.75 260.23-28.75 260.23-23.1 250.53-23.1 250.53-17.2 260.23-17.2 260.23-11.5 250.53-11.5 250.53-5.85 260.23-5.85 260.23 0 244.23 0ZM273.03 0L278.68-3.4 278.68-12.15 273.98-14.35 278.68-16.6 278.68-25.3 273.03-28.75 262.68-28.75 262.68-23.1 272.38-23.1 272.38-17.2 262.68-17.2 262.68-11.5 272.38-11.5 272.38-5.85 262.68-5.85 262.68 0 273.03 0ZM286.68-25.3L286.68-25.3 292.53-28.75 302.88-28.75 302.88-23.1 292.98-23.1 292.98-5.85 302.68-5.85 302.68 0 292.53 0 286.68-3.4 286.68-25.3ZM321.13-25.3L321.13-25.3 315.48-28.75 305.13-28.75 305.13-23.1 314.83-23.1 314.83-5.85 305.13-5.85 305.13 0 315.48 0 321.13-3.4 321.13-25.3ZM330.13 0L330.13-28.75 335.83-28.75 346.13-19.05 346.13-11.5 336.43-20.85 336.43 0 330.13 0ZM348.38-17.2L358.28-8.1 358.28-28.75 364.58-28.75 364.58 0 358.68 0 348.38-9.9 348.38-17.2ZM373.08-14.75L373.08-25.3 378.78-28.75 389.08-28.75 389.08-22.85 379.18-22.85 379.18-17.2 389.08-17.2 389.08-11.35 378.78-11.35 373.08-14.75ZM407.53-3.4L407.53-13.75 401.63-17.2 391.33-17.2 391.33-11.35 401.23-11.35 401.23-5.65 391.53-5.65 391.53 0 401.63 0 407.53-3.4ZM373.08-9.1L379.38-9.1 379.38-5.65 389.08-5.65 389.08 0 378.93 0 373.08-3.4 373.08-9.1ZM401.23-19.45L407.53-19.45 407.53-25.3 401.63-28.75 391.33-28.75 391.33-22.85 401.23-22.85 401.23-19.45ZM416.02-28.75L416.02-28.75 432.02-28.75 432.02-22.85 422.32-22.85 422.32-17.2 432.02-17.2 432.02-11.5 422.32-11.5 422.32-5.65 431.82-5.65 431.82 0 416.02 0 416.02-28.75ZM434.47-5.65L434.47-5.65 434.47 0 450.47 0 450.47-5.65 434.47-5.65ZM450.47-22.85L450.47-22.85 450.47-28.75 434.27-28.75 434.27-22.85 450.47-22.85ZM442.37-11.5L442.37-11.5 442.37-17.2 434.27-17.2 434.27-11.5 442.37-11.5ZM455.97-3.4L455.97-25.3 461.82-28.75 472.17-28.75 472.17-22.85 462.47-22.85 462.47-5.65 471.97-5.65 471.97 0 461.82 0 455.97-3.4ZM484.12-19.45L490.62-19.45 490.62-25.3 484.77-28.75 474.42-28.75 474.42-22.85 484.12-22.85 484.12-19.45ZM490.62-3.4L490.62-17.2 474.42-17.2 474.42-11.5 484.12-11.5 484.12-5.65 474.62-5.65 474.62 0 484.77 0 490.62-3.4ZM499.62 0L499.62-28.75 505.32-28.75 515.62-19.05 515.62-11.5 505.92-20.85 505.92 0 499.62 0ZM517.87-17.2L527.77-8.1 527.77-28.75 534.07-28.75 534.07 0 528.17 0 517.87-9.9 517.87-17.2ZM539.06-25.3L539.06-25.3 544.76-28.75 555.06-28.75 555.06-23.1 545.36-23.1 545.36-17.2 555.06-17.2 555.06-11.5 545.36-11.5 545.36 0 539.06 0 539.06-25.3ZM573.51-25.3L573.51-25.3 567.61-28.75 557.31-28.75 557.31-23.1 567.21-23.1 567.21-17.2 557.31-17.2 557.31-11.5 567.21-11.5 567.21 0 573.51 0 573.51-25.3Z" opacity="1" transform="matrix(1,0,0,1,0,0)" fill="black" class="slogan-text-1" id="SvgjsPath1068"></path></svg></g></svg></g></svg></g></svg></g></svg></g></svg></g></svg></g><defs><mask></mask></defs></svg><rect width="342.85155851775386" height="342.85155851775386" fill="black" stroke="none" visibility="hidden"></rect></g></mask><linearGradient x1="0" x2="1" y1="0.548" y2="0.55" id="295de301-6c34-45f1-a9b8-fa7bb2c8c8fa"><stop stop-color="#ff6cab" offset="0"></stop><stop stop-color="#7366ff" offset="1"></stop></linearGradient></svg><rect width="342.85155851775386" height="342.85155851775386" fill="none" stroke="none" visibility="hidden"></rect></g></svg></g></svg>